<svg width="196" height="198" viewBox="0 0 196 198" fill="none" xmlns="http://www.w3.org/2000/svg">
<rect x="1.5" y="1.5" width="193" height="193" rx="21.5" fill="#9ADB66" stroke="#5C9E5A" stroke-width="3"/>
<path d="M23.816 114.176H26.504V124.256L35.656 114.176H39.016L30.632 123.328L40.296 136H36.936L28.776 125.312L26.504 127.808V136H23.816V114.176ZM51.3265 128.608C50.8998 128.629 50.4945 128.651 50.1105 128.672C49.7265 128.693 49.3425 128.725 48.9585 128.768C48.5958 128.789 48.2652 128.821 47.9665 128.864C46.4305 129.056 45.3425 129.397 44.7025 129.888C44.0625 130.357 43.7425 131.04 43.7425 131.936C43.7425 132.683 43.9665 133.248 44.4145 133.632C44.8838 133.995 45.4918 134.176 46.2385 134.176C47.2625 134.176 48.1692 134.005 48.9585 133.664C49.7692 133.301 50.5585 132.832 51.3265 132.256V128.608ZM51.2945 134.496C50.2918 135.072 49.3532 135.541 48.4785 135.904C47.6252 136.245 46.6972 136.416 45.6945 136.416C44.2652 136.416 43.1238 136.075 42.2705 135.392C41.4385 134.688 41.0225 133.536 41.0225 131.936C41.0225 131.104 41.2358 130.379 41.6625 129.76C42.0892 129.141 42.6438 128.629 43.3265 128.224C44.0305 127.797 44.8198 127.467 45.6945 127.232C46.5692 126.997 47.4652 126.848 48.3825 126.784C48.7665 126.741 49.2678 126.709 49.8865 126.688C50.5052 126.645 50.9852 126.613 51.3265 126.592C51.3265 125.845 51.3052 125.184 51.2625 124.608C51.2198 124.011 51.0918 123.509 50.8785 123.104C50.6652 122.677 50.3452 122.357 49.9185 122.144C49.5132 121.931 48.9265 121.824 48.1585 121.824C47.5398 121.824 46.9425 121.867 46.3665 121.952C45.7905 122.016 45.2785 122.091 44.8305 122.176C44.2972 122.283 43.8065 122.4 43.3585 122.528L42.8465 120.32C43.3798 120.192 43.9558 120.075 44.5745 119.968C45.1078 119.861 45.7265 119.776 46.4305 119.712C47.1345 119.627 47.8918 119.584 48.7025 119.584C49.7905 119.584 50.6652 119.744 51.3265 120.064C52.0092 120.384 52.5318 120.821 52.8945 121.376C53.2785 121.909 53.5345 122.528 53.6625 123.232C53.8118 123.915 53.8865 124.64 53.8865 125.408V133.088C53.8865 133.387 53.8865 133.707 53.8865 134.048C53.9078 134.368 53.9292 134.688 53.9505 135.008C53.9932 135.328 54.0358 135.659 54.0785 136L51.6145 136.256L51.2945 134.496ZM58.4298 123.104C58.4511 122.656 58.3978 121.685 58.2698 120.192L60.6378 119.872L60.9898 121.92C61.6298 121.493 62.2591 121.12 62.8778 120.8C63.5178 120.48 64.1684 120.203 64.8298 119.968C65.4911 119.712 66.1311 119.584 66.7498 119.584C67.6244 119.584 68.3498 119.691 68.9258 119.904C69.5231 120.096 70.0031 120.427 70.3658 120.896C70.7284 121.365 70.9844 121.984 71.1338 122.752C71.3044 123.52 71.3898 124.48 71.3898 125.632V136H68.8298V125.92C68.8298 125.28 68.8191 124.715 68.7978 124.224C68.7764 123.712 68.6804 123.285 68.5098 122.944C68.3604 122.581 68.1151 122.304 67.7738 122.112C67.4538 121.92 66.9951 121.824 66.3978 121.824C65.8431 121.824 65.2564 121.952 64.6378 122.208C64.0191 122.443 63.4111 122.72 62.8138 123.04C62.2164 123.36 61.6084 123.733 60.9898 124.16V136H58.4298V123.104ZM84.8578 128.608C84.4311 128.629 84.0258 128.651 83.6418 128.672C83.2578 128.693 82.8738 128.725 82.4898 128.768C82.1271 128.789 81.7964 128.821 81.4978 128.864C79.9618 129.056 78.8738 129.397 78.2338 129.888C77.5938 130.357 77.2738 131.04 77.2738 131.936C77.2738 132.683 77.4978 133.248 77.9458 133.632C78.4151 133.995 79.0231 134.176 79.7698 134.176C80.7938 134.176 81.7004 134.005 82.4898 133.664C83.3004 133.301 84.0898 132.832 84.8578 132.256V128.608ZM84.8258 134.496C83.8231 135.072 82.8844 135.541 82.0098 135.904C81.1564 136.245 80.2284 136.416 79.2258 136.416C77.7964 136.416 76.6551 136.075 75.8018 135.392C74.9698 134.688 74.5538 133.536 74.5538 131.936C74.5538 131.104 74.7671 130.379 75.1938 129.76C75.6204 129.141 76.1751 128.629 76.8578 128.224C77.5618 127.797 78.3511 127.467 79.2258 127.232C80.1004 126.997 80.9964 126.848 81.9138 126.784C82.2978 126.741 82.7991 126.709 83.4178 126.688C84.0364 126.645 84.5164 126.613 84.8578 126.592C84.8578 125.845 84.8364 125.184 84.7938 124.608C84.7511 124.011 84.6231 123.509 84.4098 123.104C84.1964 122.677 83.8764 122.357 83.4498 122.144C83.0444 121.931 82.4578 121.824 81.6898 121.824C81.0711 121.824 80.4738 121.867 79.8978 121.952C79.3218 122.016 78.8098 122.091 78.3618 122.176C77.8284 122.283 77.3378 122.4 76.8898 122.528L76.3778 120.32C76.9111 120.192 77.4871 120.075 78.1058 119.968C78.6391 119.861 79.2578 119.776 79.9618 119.712C80.6658 119.627 81.4231 119.584 82.2338 119.584C83.3218 119.584 84.1964 119.744 84.8578 120.064C85.5404 120.384 86.0631 120.821 86.4258 121.376C86.8098 121.909 87.0658 122.528 87.1938 123.232C87.3431 123.915 87.4178 124.64 87.4178 125.408V133.088C87.4178 133.387 87.4178 133.707 87.4178 134.048C87.4391 134.368 87.4604 134.688 87.4818 135.008C87.5244 135.328 87.5671 135.659 87.6098 136L85.1458 136.256L84.8258 134.496ZM28.392 154.672H21.544V152.176H37.928V154.672H31.08V174H28.392V154.672ZM38.5235 160.496C38.5235 160.005 38.4702 159.237 38.3635 158.192L40.7315 157.872L40.9875 160.208H41.0195C41.4035 159.717 41.7768 159.291 42.1395 158.928C42.5022 158.565 42.8755 158.256 43.2595 158C43.6648 157.723 44.0488 157.584 44.4115 157.584C44.9022 157.563 45.5848 157.616 46.4595 157.744L45.8835 160.208C45.1795 160.08 44.6888 160.027 44.4115 160.048C44.0488 160.048 43.6648 160.219 43.2595 160.56C42.8542 160.901 42.5022 161.264 42.2035 161.648C41.8195 162.117 41.4462 162.651 41.0835 163.248V174H38.5235V160.496ZM58.014 166.608C57.5873 166.629 57.182 166.651 56.798 166.672C56.414 166.693 56.03 166.725 55.646 166.768C55.2833 166.789 54.9527 166.821 54.654 166.864C53.118 167.056 52.03 167.397 51.39 167.888C50.75 168.357 50.43 169.04 50.43 169.936C50.43 170.683 50.654 171.248 51.102 171.632C51.5713 171.995 52.1793 172.176 52.926 172.176C53.95 172.176 54.8567 172.005 55.646 171.664C56.4567 171.301 57.246 170.832 58.014 170.256V166.608ZM57.982 172.496C56.9793 173.072 56.0407 173.541 55.166 173.904C54.3127 174.245 53.3847 174.416 52.382 174.416C50.9527 174.416 49.8113 174.075 48.958 173.392C48.126 172.688 47.71 171.536 47.71 169.936C47.71 169.104 47.9233 168.379 48.35 167.76C48.7767 167.141 49.3313 166.629 50.014 166.224C50.718 165.797 51.5073 165.467 52.382 165.232C53.2567 164.997 54.1527 164.848 55.07 164.784C55.454 164.741 55.9553 164.709 56.574 164.688C57.1927 164.645 57.6727 164.613 58.014 164.592C58.014 163.845 57.9927 163.184 57.95 162.608C57.9073 162.011 57.7793 161.509 57.566 161.104C57.3527 160.677 57.0327 160.357 56.606 160.144C56.2007 159.931 55.614 159.824 54.846 159.824C54.2273 159.824 53.63 159.867 53.054 159.952C52.478 160.016 51.966 160.091 51.518 160.176C50.9847 160.283 50.494 160.4 50.046 160.528L49.534 158.32C50.0673 158.192 50.6433 158.075 51.262 157.968C51.7953 157.861 52.414 157.776 53.118 157.712C53.822 157.627 54.5793 157.584 55.39 157.584C56.478 157.584 57.3527 157.744 58.014 158.064C58.6967 158.384 59.2193 158.821 59.582 159.376C59.966 159.909 60.222 160.528 60.35 161.232C60.4993 161.915 60.574 162.64 60.574 163.408V171.088C60.574 171.387 60.574 171.707 60.574 172.048C60.5953 172.368 60.6167 172.688 60.638 173.008C60.6807 173.328 60.7233 173.659 60.766 174L58.302 174.256L57.982 172.496ZM65.0853 157.872L67.6453 157.584V174H65.0853V157.872ZM64.6693 153.296C64.6693 152.805 64.8293 152.4 65.1493 152.08C65.4906 151.739 65.9066 151.568 66.3973 151.568C66.9093 151.568 67.3359 151.739 67.6773 152.08C68.0399 152.4 68.2213 152.805 68.2213 153.296C68.2213 153.787 68.0399 154.203 67.6773 154.544C67.3359 154.864 66.9093 155.024 66.3973 155.024C65.9066 155.024 65.4906 154.864 65.1493 154.544C64.8293 154.203 64.6693 153.787 64.6693 153.296ZM72.2735 161.104C72.2948 160.656 72.2415 159.685 72.1135 158.192L74.4815 157.872L74.8335 159.92C75.4735 159.493 76.1028 159.12 76.7215 158.8C77.3615 158.48 78.0122 158.203 78.6735 157.968C79.3348 157.712 79.9748 157.584 80.5935 157.584C81.4682 157.584 82.1935 157.691 82.7695 157.904C83.3668 158.096 83.8468 158.427 84.2095 158.896C84.5722 159.365 84.8282 159.984 84.9775 160.752C85.1482 161.52 85.2335 162.48 85.2335 163.632V174H82.6735V163.92C82.6735 163.28 82.6628 162.715 82.6415 162.224C82.6202 161.712 82.5242 161.285 82.3535 160.944C82.2042 160.581 81.9588 160.304 81.6175 160.112C81.2975 159.92 80.8388 159.824 80.2415 159.824C79.6868 159.824 79.1002 159.952 78.4815 160.208C77.8628 160.443 77.2548 160.72 76.6575 161.04C76.0602 161.36 75.4522 161.733 74.8335 162.16V174H72.2735V161.104Z" fill="white"/>
<path d="M190.809 175.824L187.841 168.306C187.429 167.264 186.422 166.579 185.301 166.579H175.086C176.408 166.579 177.637 165.899 178.339 164.778C183.388 156.719 183.388 146.483 178.339 138.424C177.637 137.303 176.408 136.622 175.085 136.622H171.665V127.175H173.429C174.519 127.175 175.402 126.291 175.402 125.201V123.039C175.402 121.949 174.519 121.066 173.429 121.066H158.904C157.814 121.066 156.93 121.949 156.93 123.039V125.201C156.93 126.291 157.814 127.175 158.904 127.175H160.668V136.623H148.951V119.877C148.951 118.369 147.729 117.147 146.221 117.147H106.73C105.222 117.147 104 118.369 104 119.877V124.06C104 125.568 105.222 126.79 106.73 126.79H109.775V166.579H106.73C105.222 166.579 104 167.802 104 169.31V176.827C104 178.335 105.222 179.557 106.73 179.557H112.663V179.557C112.663 170.283 120.207 162.739 129.481 162.739C138.755 162.739 146.299 170.283 146.299 179.557V179.557H154.436C155.998 174.18 160.966 170.237 166.84 170.237C172.715 170.237 177.683 174.18 179.245 179.557H188.27C189.174 179.557 190.019 179.11 190.527 178.363C191.036 177.615 191.141 176.664 190.809 175.824ZM139.201 152.22C139.201 153.638 138.051 154.788 136.633 154.788H121.418C119.999 154.788 118.849 153.638 118.849 152.22V139.377C118.849 133.757 123.405 129.201 129.025 129.201C134.645 129.201 139.201 133.757 139.201 139.377V152.22V152.22Z" fill="white"/>
<path d="M166.84 174.457C162.216 174.457 158.437 178.065 158.16 182.619C156.378 182.619 143.152 182.619 141.393 182.619C141.644 181.64 141.778 180.614 141.778 179.556C141.778 172.765 136.272 167.26 129.481 167.26C122.69 167.26 117.184 172.765 117.184 179.556C117.184 186.348 122.69 191.853 129.481 191.853C133.409 191.853 136.905 190.009 139.156 187.141C146.316 187.141 151.589 187.141 159.11 187.141C160.556 189.939 163.473 191.853 166.84 191.853C171.644 191.853 175.538 187.959 175.538 183.155C175.538 178.351 171.644 174.457 166.84 174.457Z" fill="white"/>
<path d="M44.6176 26.3369C44.8832 27.1463 44.4786 28.2271 43.4038 29.5738C41.5136 33.0826 39.2186 38.3425 36.5254 45.3536C40.2998 44.2788 43.6692 43.7353 46.6405 43.7353C49.6058 43.7353 52.0333 44.5444 53.9236 46.1628C55.5421 47.5157 56.3513 50.2089 56.3513 54.255C56.3513 58.573 54.4611 65.4512 50.6868 74.8901C46.6407 84.6011 43.1322 90.9418 40.1671 93.9071C39.3577 94.7163 38.6815 94.4506 38.1439 93.0977C37.0631 90.1326 36.3864 88.3814 36.121 87.8378C35.3116 86.4909 33.6933 84.7398 31.2655 82.5777C30.722 81.5031 30.9936 81.2312 32.0749 81.7686L37.3348 84.6009C38.6815 85.4101 40.0279 84.7398 41.3809 82.5775C44.074 78.266 46.7739 72.7342 49.4731 65.9887C51.6289 60.5957 52.71 55.7404 52.71 51.4227C52.71 49.5387 52.1665 48.1857 51.0916 47.3766C50.0106 46.5674 48.6639 46.1628 47.0455 46.1628C44.3459 46.1628 40.4327 47.1111 35.3118 48.9951C30.9938 60.0588 26.4104 71.388 21.5549 82.9825L20.3414 85.8149C19.2601 87.433 18.4509 87.1678 17.9136 85.0055C17.3699 82.0402 17.3699 79.7454 17.9136 78.1272C18.4509 77.5897 19.1274 76.6478 19.9368 75.2949C22.9018 69.6304 26.5434 61.4053 30.8613 50.6137C27.89 51.6948 25.3296 52.6369 23.1737 53.446C22.0924 53.9896 21.1506 54.5267 20.3414 55.0644C18.7228 55.3361 16.6999 53.7177 14.2721 50.2091C13.7284 49.1343 14.0002 48.8624 15.0813 49.3999C15.8905 49.9437 16.9653 50.2091 18.3182 50.2091H19.1274C21.0114 50.2091 25.4621 48.9953 32.4797 46.5676C35.1729 39.5564 37.1958 34.1636 38.5487 30.3832C39.3579 27.9554 39.7625 25.9325 39.7625 24.3141C39.7625 23.2393 39.3579 22.1583 38.5487 21.0772C38.005 20.0024 38.2769 19.7305 39.3579 20.2678C41.7853 21.6207 43.5365 23.6437 44.6176 26.3369ZM85.888 48.186C90.1995 54.1223 92.4946 58.8449 92.7662 62.3472C92.7662 63.9658 92.4944 65.4512 91.9569 66.7981C90.876 68.1508 89.6622 68.2836 88.3153 67.2025C87.7718 66.1277 86.8297 63.4281 85.483 59.1105C83.8649 54.7986 81.1652 50.2089 77.391 45.3536C74.1541 41.8513 70.5128 38.4752 66.4665 35.2385C65.9227 34.1636 66.1946 33.8918 67.2756 34.4293C76.1772 40.0937 82.3792 44.6834 85.888 48.186Z" fill="white"/>
<path d="M129.01 20.0954C128.942 20.1952 129.146 20.834 129.486 21.5327C130.507 23.6289 130.393 24.3875 128.239 30.1768C127.197 32.9118 126.199 35.5868 125.995 36.0859L125.632 37.0242L122.232 37.643C117.425 38.5214 112.324 39.2601 110.148 39.3998C107.994 39.5395 107.2 39.3399 105.999 38.3417C104.956 37.4634 104.094 37.3635 104.004 38.0822C103.845 39.2401 108.833 43.652 110.284 43.652C110.42 43.652 111.055 43.4324 111.712 43.1728C113.48 42.4542 123.456 40.3381 123.773 40.5976C124.023 40.8371 121.166 47.4849 118.921 51.8369C117.221 55.1508 115.884 57.3467 114.251 59.5027C113.118 61 113.004 61.2795 112.868 62.5372C112.687 64.5534 113.095 66.1705 113.934 66.8492C114.319 67.1686 114.773 67.4082 114.954 67.4082C115.611 67.4082 116.314 66.3501 117.675 63.3556C118.989 60.5009 121.325 55.4901 123.456 50.9385C124.771 48.1836 126.38 44.7499 127.537 42.2545C128.081 41.0967 128.625 40.0586 128.738 39.9188C128.829 39.7791 129.509 39.5795 130.212 39.4597C140.595 37.663 149.732 35.7066 150.072 35.2275C150.571 34.5088 149.845 33.9498 147.125 32.9916C143.475 31.694 143.089 31.674 141.275 32.5325C138.918 33.6903 135.562 34.8681 133.227 35.3872C132.026 35.6667 130.937 35.8463 130.779 35.8264C130.393 35.7465 133.159 29.2585 134.315 27.5417C135.064 26.4237 135.222 26.0045 135.109 25.5853C134.927 24.9265 132.638 22.1915 131.391 21.1135C130.439 20.295 129.237 19.776 129.01 20.0954Z" fill="white"/>
<path d="M168.504 39.1802C168.164 39.4996 168.436 39.839 170.59 41.8153C172.993 44.0113 174.602 45.9677 174.829 47.0058C175.169 48.483 173.99 49.4413 171.814 49.4413C169.637 49.4413 169.637 50.0801 171.814 50.4195C175.033 50.9185 177.482 51.9167 179.499 53.5736C182.061 55.6498 183.195 54.9112 182.628 51.4975C182.107 48.2435 180.633 46.327 176.28 43.2726C173.718 41.4759 170.045 39.3399 169.252 39.1602C168.935 39.1003 168.595 39.1003 168.504 39.1802Z" fill="white"/>
<path d="M154.72 52.9548C153.427 53.5338 151.704 56.1889 150.684 59.1235C149.664 61.9782 149.528 63.735 149.528 73.477C149.528 80.7037 149.46 82.6002 149.256 82.5203C144.359 80.7436 139.802 79.3063 136.605 78.5477C135.154 78.2083 134.066 78.0885 132.184 78.0885C129.917 78.0885 129.554 78.1484 128.33 78.6475C126.675 79.3262 125.428 80.3643 124.635 81.6819C123.433 83.7581 123.796 87.0919 125.474 89.2479C126.426 90.4457 128.443 92.0428 129.736 92.6217C134.202 94.618 142.25 94.2787 147.102 91.903C148.78 91.0646 150.48 89.7869 151.455 88.5892C152.022 87.8904 152.226 87.7707 152.747 87.8505C153.699 88.0102 158.982 90.3858 164.423 93.0809C166.327 94.0391 167.212 94.3585 167.846 94.3585C169.116 94.3585 169.592 93.9792 169.388 93.1408C169.025 91.4838 168.209 90.0664 166.985 88.9285L165.738 87.7707L160.524 86.0538C157.667 85.1355 154.946 84.2571 154.516 84.1174L153.722 83.8579L153.699 78.887C153.699 76.1321 153.541 71.86 153.382 69.3446C153.223 66.8492 153.155 63.2558 153.223 61.3593C153.359 57.746 153.654 56.2488 154.584 54.7715C154.856 54.3323 155.218 53.7534 155.4 53.4938C155.785 52.855 155.468 52.5955 154.72 52.9548ZM135.018 80.9233C138.124 81.7018 148.598 85.4949 148.621 85.8342C148.621 86.1936 146.762 88.3696 145.878 89.0283C143.996 90.4657 142.001 90.9448 137.512 91.1045C132.366 91.2842 129.985 90.7651 128.126 89.0683C126.834 87.9104 126.176 86.4132 126.176 84.6364C126.176 82.2009 127.559 80.7037 130.076 80.4042C131.617 80.2246 132.66 80.3244 135.018 80.9233Z" fill="white"/>
</svg>
